<svg width="21" height="37" viewBox="0 0 21 37" fill="none" xmlns="http://www.w3.org/2000/svg">
<path d="M19.4985 0.929365L14.8302 0.921875C9.58543 0.921875 6.19605 4.39926 6.19605 9.78143V13.8663H1.50224C1.09664 13.8663 0.768188 14.1951 0.768188 14.6007V20.5192C0.768188 20.9248 1.09701 21.2532 1.50224 21.2532H6.19605V36.1875C6.19605 36.5931 6.52451 36.9215 6.93011 36.9215H13.0542C13.4598 36.9215 13.7883 36.5927 13.7883 36.1875V21.2532H19.2764C19.682 21.2532 20.0105 20.9248 20.0105 20.5192L20.0127 14.6007C20.0127 14.406 19.9352 14.2195 19.7977 14.0816C19.6603 13.9438 19.473 13.8663 19.2783 13.8663H13.7883V10.4035C13.7883 8.73915 14.1849 7.89425 16.3529 7.89425L19.4978 7.89312C19.903 7.89312 20.2314 7.5643 20.2314 7.15907V1.66342C20.2314 1.25857 19.9034 0.930114 19.4985 0.929365Z" fill="white"/>
</svg>
